<svg height='100px' width='100px'  fill="#000000" xmlns="http://www.w3.org/2000/svg" data-name="Layer 1" viewBox="0 0 100 100" x="0px" y="0px"><title>Artboard 433</title><path d="M44,32V28a2,2,0,0,0-4,0v4a2,2,0,0,0,4,0Z"></path><path d="M28,44h4a2,2,0,0,0,0-4H28a2,2,0,0,0,0,4Z"></path><path d="M35.41,32.59l-2-2a2,2,0,0,0-2.82,2.82l2,2a2,2,0,0,0,2.82-2.82Z"></path><path d="M58,74a2,2,0,0,0,2-2V68a2,2,0,0,0-4,0v4A2,2,0,0,0,58,74Z"></path><path d="M74,58a2,2,0,0,0-2-2H68a2,2,0,0,0,0,4h4A2,2,0,0,0,74,58Z"></path><path d="M66.59,69.41a2,2,0,0,0,2.82-2.82l-2-2a2,2,0,0,0-2.82,2.82Z"></path><path d="M28,60.1A11.92,11.92,0,0,0,39.9,72a11.79,11.79,0,0,0,8.41-3.49l6.2-6.2a11.89,11.89,0,0,0,0-16.82,2,2,0,1,0-2.83,2.82,7.92,7.92,0,0,1,0,11.18l-6.2,6.2A7.91,7.91,0,0,1,34.31,54.51l3.1-3.1a2,2,0,0,0-2.82-2.82l-3.1,3.1A11.79,11.79,0,0,0,28,60.1Z"></path><path d="M62.59,48.59a2,2,0,0,0,2.82,2.82l3.1-3.1A11.79,11.79,0,0,0,72,39.9,11.92,11.92,0,0,0,60.1,28a11.79,11.79,0,0,0-8.41,3.49l-6.2,6.2a11.88,11.88,0,0,0,0,16.82,2,2,0,0,0,2.82,0,2,2,0,0,0,0-2.82,7.92,7.92,0,0,1,0-11.18l6.2-6.2A7.91,7.91,0,0,1,65.69,45.49Z"></path></svg>