<?xml version="1.0" encoding="UTF-8"?>
<svg width="468px" height="104px" viewBox="0 0 468 104" version="1.1" xmlns="http://www.w3.org/2000/svg" xmlns:xlink="http://www.w3.org/1999/xlink">
    <!-- Generator: Sketch 60 (88103) - https://sketch.com -->
    <title>Untitled 15</title>
    <desc>Created with Sketch.</desc>
    <g id="Page-1" stroke="none" stroke-width="1" fill="none" fill-rule="evenodd">
        <text id="Roam-Research-Markdo" font-family="Baskerville" font-size="46" font-weight="normal" fill="#000000">
            <tspan x="103" y="41">Roam Research</tspan>
            <tspan x="103" y="93" font-family="Baskerville-SemiBold, Baskerville" font-weight="500">Markdown Links</tspan>
        </text>
        <g id="icon" transform="translate(0.000000, 10.000000)" fill="#000000" fill-rule="nonzero">
            <path d="M30.6309524,10.375 L30.6309524,3.45833333 C30.6309524,1.54834857 29.0826038,0 27.172619,0 C25.2626343,0 23.7142857,1.54834857 23.7142857,3.45833333 L23.7142857,10.375 C23.7142857,12.2849848 25.2626343,13.8333333 27.172619,13.8333333 C29.0826038,13.8333333 30.6309524,12.2849848 30.6309524,10.375 Z" id="Path"></path>
            <path d="M3.45833333,30.6309524 L10.375,30.6309524 C12.2849848,30.6309524 13.8333333,29.0826038 13.8333333,27.172619 C13.8333333,25.2626343 12.2849848,23.7142857 10.375,23.7142857 L3.45833333,23.7142857 C1.54834857,23.7142857 0,25.2626343 0,27.172619 C0,29.0826038 1.54834857,30.6309524 3.45833333,30.6309524 Z" id="Path"></path>
            <path d="M15.9757438,11.156468 L12.5578177,7.73854193 C11.2017204,6.57720996 9.18024307,6.65529086 7.91776697,7.91776697 C6.65529086,9.18024307 6.57720996,11.2017204 7.73854193,12.5578177 L11.156468,15.9757438 C12.5125653,17.1370758 14.5340426,17.0589949 15.7965187,15.7965187 C17.0589949,14.5340426 17.1370758,12.5125653 15.9757438,11.156468 L15.9757438,11.156468 Z" id="Path"></path>
            <path d="M55.827381,83 C57.7373657,83 59.2857143,81.4516514 59.2857143,79.5416667 L59.2857143,72.625 C59.2857143,70.7150152 57.7373657,69.1666667 55.827381,69.1666667 C53.9173962,69.1666667 52.3690476,70.7150152 52.3690476,72.625 L52.3690476,79.5416667 C52.3690476,81.4516514 53.9173962,83 55.827381,83 Z" id="Path"></path>
            <path d="M83,55.827381 C83,53.9173962 81.4516514,52.3690476 79.5416667,52.3690476 L72.625,52.3690476 C70.7150152,52.3690476 69.1666667,53.9173962 69.1666667,55.827381 C69.1666667,57.7373657 70.7150152,59.2857143 72.625,59.2857143 L79.5416667,59.2857143 C81.4516514,59.2857143 83,57.7373657 83,55.827381 Z" id="Path"></path>
            <path d="M70.4421823,75.2614581 C71.7982796,76.42279 73.8197569,76.3447091 75.082233,75.082233 C76.3447091,73.8197569 76.42279,71.7982796 75.2614581,70.4421823 L71.843532,67.0242562 C70.4874347,65.8629242 68.4659574,65.9410051 67.2034813,67.2034813 C65.9410051,68.4659574 65.8629242,70.4874347 67.0242562,71.843532 L70.4421823,75.2614581 Z" id="Path"></path>
            <path d="M3.95238095,58.7072219 C3.971703,69.933055 13.2623979,79.0287026 24.7289579,79.047619 C30.2418359,79.0642436 35.5311828,76.9153401 39.4121663,73.0821736 L50.236886,62.4847062 C54.1326284,58.6730185 56.3214286,53.501899 56.3214286,48.1097545 C56.3214286,42.7176099 54.1326284,37.5464904 50.236886,33.7348027 C49.3733642,32.7985177 48.0533378,32.4038928 46.8028632,32.7081937 C45.5523887,33.0124947 44.5747149,33.9662612 44.259464,35.1893987 C43.9442131,36.4125362 44.3426252,37.7062389 45.2959252,38.5549411 C50.6720803,43.8375815 50.6720803,52.3819274 45.2959252,57.6645678 L34.4712056,68.2620352 C29.016708,73.135424 20.6113365,72.9457113 15.392037,67.8314103 C10.1727375,62.7171094 9.98647817,54.4880323 14.969251,49.1524085 L20.3816108,43.8536748 C21.5680588,42.4973348 21.4882892,40.4754956 20.1985097,39.2127936 C18.9087302,37.9500915 16.8435347,37.8719966 15.4581093,39.0335364 L10.0457495,44.3322701 C6.1303845,48.1317769 3.93539987,53.3100802 3.95238095,58.7072219 L3.95238095,58.7072219 Z" id="Path"></path>
            <path d="M63.6087584,39.2478435 C62.4224747,40.6080959 62.5022332,42.6357671 63.7918342,43.9021115 C65.0814352,45.1684559 67.1463448,45.2467761 68.5315785,44.0818857 L73.9431891,38.7678676 C77.8580122,34.957401 80.052693,29.7641607 80.0357143,24.3514508 C80.0163949,13.0932363 70.726986,3.97135192 59.2620131,3.95238095 C53.7498981,3.93570842 48.4612833,6.09081051 44.580837,9.93503395 L33.7576157,20.5630701 C29.8581255,24.3835162 27.6666667,29.5703902 27.6666667,34.979487 C27.6666667,40.3885838 29.8581255,45.5754577 33.7576157,49.3959038 C35.1193775,50.7251749 37.3186739,50.7251749 38.6804357,49.3959038 C40.034119,48.0586999 40.034119,45.8990655 38.6804357,44.5618616 C33.3050248,39.2639832 33.3050248,30.6949908 38.6804357,25.3971124 L49.5036571,14.7690762 C54.9427205,9.77853099 63.4313358,9.91985506 68.6949913,15.0885862 C73.9586468,20.2573174 74.1025663,28.5928496 69.0203691,33.9338254 L63.6087584,39.2478435 Z" id="Path"></path>
        </g>
    </g>
</svg>